<svg width="24" height="auto" viewBox="0 0 21 24" fill="none" xmlns="http://www.w3.org/2000/svg">
  <g filter="url(#filter0_d_24_2870)">
    <path
      d="M16.778 0.085C16.8462 0.130637 16.9022 0.192369 16.9409 0.264746C16.9796 0.337123 16.9999 0.417918 17 0.5V8C17 8.09985 16.9701 8.19741 16.9141 8.28011C16.8581 8.36281 16.7787 8.42685 16.686 8.464L16.683 8.465L16.677 8.468L16.654 8.477C16.5225 8.52925 16.3902 8.57926 16.257 8.627C15.993 8.722 15.626 8.85 15.21 8.977C14.394 9.229 13.331 9.5 12.5 9.5C11.653 9.5 10.952 9.22 10.342 8.975L10.314 8.965C9.68 8.71 9.14 8.5 8.5 8.5C7.8 8.5 6.862 8.73 6.063 8.977C5.70526 9.08849 5.35078 9.21021 5 9.342V15.5C5 15.6326 4.94732 15.7598 4.85355 15.8536C4.75979 15.9473 4.63261 16 4.5 16C4.36739 16 4.24021 15.9473 4.14645 15.8536C4.05268 15.7598 4 15.6326 4 15.5V0.5C4 0.367392 4.05268 0.240215 4.14645 0.146447C4.24021 0.0526784 4.36739 0 4.5 0C4.63261 0 4.75979 0.0526784 4.85355 0.146447C4.94732 0.240215 5 0.367392 5 0.5V0.782C5.226 0.703 5.496 0.612 5.79 0.522C6.606 0.272 7.67 0 8.5 0C9.34 0 10.024 0.277 10.621 0.519L10.664 0.537C11.286 0.788 11.828 1 12.5 1C13.2 1 14.138 0.77 14.937 0.523C15.3923 0.380812 15.8423 0.22204 16.286 0.047L16.305 0.04L16.309 0.038H16.31"
      fill="#AB1931" />
  </g>
  <defs>
    <filter id="filter0_d_24_2870" x="-2" y="0" width="24" height="24" filterUnits="userSpaceOnUse"
      color-interpolation-filters="sRGB">
      <feFlood flood-opacity="0" result="BackgroundImageFix" />
      <feColorMatrix in="SourceAlpha" type="matrix" values="0 0 0 0 0 0 0 0 0 0 0 0 0 0 0 0 0 0 127 0"
        result="hardAlpha" />
      <feOffset dy="4" />
      <feGaussianBlur stdDeviation="2" />
      <feComposite in2="hardAlpha" operator="out" />
      <feColorMatrix type="matrix" values="0 0 0 0 0 0 0 0 0 0 0 0 0 0 0 0 0 0 0.25 0" />
      <feBlend mode="normal" in2="BackgroundImageFix" result="effect1_dropShadow_24_2870" />
      <feBlend mode="normal" in="SourceGraphic" in2="effect1_dropShadow_24_2870" result="shape" />
    </filter>
  </defs>
</svg>