<?xml version="1.0" encoding="UTF-8" standalone="no"?>
<!-- Created with Inkscape (http://www.inkscape.org/) -->

<svg
   version="1.1"
   id="svg2235"
   xml:space="preserve"
   width="682.66669"
   height="682.66669"
   viewBox="0 0 682.66669 682.66669"
   xmlns="http://www.w3.org/2000/svg"
   xmlns:svg="http://www.w3.org/2000/svg"><defs
     id="defs2239"><clipPath
       clipPathUnits="userSpaceOnUse"
       id="clipPath2253"><path
         d="M 0,512 H 512 V 0 H 0 Z"
         id="path2251" /></clipPath></defs><g
     id="g2241"
     transform="matrix(1.3333333,0,0,-1.3333333,0,682.66667)"><g
       id="g2243"
       transform="translate(41.2148,235.6187)"><path
         d="m 0,0 v 101.708 m 429.582,0 V 0"
         style="fill:none;stroke:#7A1B1A;stroke-width:15;stroke-linecap:round;stroke-linejoin:round;stroke-miterlimit:10;stroke-dasharray:none;stroke-opacity:1"
         id="path2245" /></g><g
       id="g2247"><g
         id="g2249"
         clip-path="url(#clipPath2253)"><g
           id="g2255"
           transform="translate(10.1191,342.0889)"><path
             d="M 0,0 C -5.414,9.354 -2.154,21.458 7.199,26.873 L 235.072,158.43 c 3.118,1.814 6.974,2.693 10.8,2.693 3.856,0 7.682,-0.879 10.8,-2.693 L 484.545,26.873 c 9.383,-5.415 12.614,-17.519 7.2,-26.873 -5.386,-9.383 -17.49,-12.614 -26.844,-7.2 L 245.872,119.254 26.872,-7.2 C 17.489,-12.614 5.414,-9.383 0,0 Z"
             style="fill:none;stroke:#7A1B1A;stroke-width:15;stroke-linecap:round;stroke-linejoin:round;stroke-miterlimit:10;stroke-dasharray:none;stroke-opacity:1"
             id="path2257" /></g><g
           id="g2259"
           transform="translate(240.3447,8.7886)"><path
             d="m 0,0 h -228.241 c -2.524,0 -4.593,2.069 -4.593,4.592 v 27.44 c 0,2.523 2.069,4.592 4.593,4.592 h 487.804 c 2.523,0 4.592,-2.069 4.592,-4.592 V 4.592 C 264.155,2.069 262.086,0 259.563,0 H 34.61"
             style="fill:none;stroke:#7A1B1A;stroke-width:15;stroke-linecap:round;stroke-linejoin:round;stroke-miterlimit:10;stroke-dasharray:none;stroke-opacity:1"
             id="path2261" /></g><g
           id="g2263"
           transform="translate(273.708,235.6187)"><path
             d="m 0,0 h 226.2 c 2.523,0 4.592,-2.069 4.592,-4.592 v -27.44 c 0,-2.523 -2.069,-4.592 -4.592,-4.592 h -487.804 c -2.524,0 -4.593,2.069 -4.593,4.592 v 27.44 c 0,2.523 2.069,4.592 4.593,4.592 h 228.241"
             style="fill:none;stroke:#7A1B1A;stroke-width:15;stroke-linecap:round;stroke-linejoin:round;stroke-miterlimit:10;stroke-dasharray:none;stroke-opacity:1"
             id="path2265" /></g><g
           id="g2267"
           transform="translate(35.3184,198.9946)"><path
             d="m 0,0 h 107.97 v -28.261 c 0,-2.438 -2.013,-4.451 -4.45,-4.451 H 4.45 c -2.437,0 -4.45,2.013 -4.45,4.451 z"
             style="fill:none;stroke:#7A1B1A;stroke-width:15;stroke-linecap:round;stroke-linejoin:round;stroke-miterlimit:10;stroke-dasharray:none;stroke-opacity:1"
             id="path2269" /></g><g
           id="g2271"
           transform="translate(35.3184,45.4126)"><path
             d="m 0,0 h 107.97 v 28.233 c 0,2.466 -2.013,4.479 -4.45,4.479 H 4.45 C 2.013,32.712 0,30.699 0,28.233 Z"
             style="fill:none;stroke:#7A1B1A;stroke-width:15;stroke-linecap:round;stroke-linejoin:round;stroke-miterlimit:10;stroke-dasharray:none;stroke-opacity:1"
             id="path2273" /></g><path
           d="m 56.295,78.125 h 66.018 v 88.158 H 56.295 Z"
           style="fill:none;stroke:#7A1B1A;stroke-width:15;stroke-linecap:round;stroke-linejoin:round;stroke-miterlimit:10;stroke-dasharray:none;stroke-opacity:1"
           id="path2275" /><g
           id="g2277"
           transform="translate(201.9922,198.9946)"><path
             d="m 0,0 h 107.998 v -28.261 c 0,-2.438 -2.013,-4.451 -4.478,-4.451 H 4.479 C 2.013,-32.712 0,-30.699 0,-28.261 Z"
             style="fill:none;stroke:#7A1B1A;stroke-width:15;stroke-linecap:round;stroke-linejoin:round;stroke-miterlimit:10;stroke-dasharray:none;stroke-opacity:1"
             id="path2279" /></g><g
           id="g2281"
           transform="translate(201.9922,45.4126)"><path
             d="m 0,0 h 107.998 v 28.233 c 0,2.466 -2.013,4.479 -4.478,4.479 H 4.479 C 2.013,32.712 0,30.699 0,28.233 Z"
             style="fill:none;stroke:#7A1B1A;stroke-width:15;stroke-linecap:round;stroke-linejoin:round;stroke-miterlimit:10;stroke-dasharray:none;stroke-opacity:1"
             id="path2283" /></g><path
           d="m 222.997,78.125 h 65.989 v 88.158 h -65.989 z"
           style="fill:none;stroke:#7A1B1A;stroke-width:15;stroke-linecap:round;stroke-linejoin:round;stroke-miterlimit:10;stroke-dasharray:none;stroke-opacity:1"
           id="path2285" /><g
           id="g2287"
           transform="translate(368.6943,198.9946)"><path
             d="m 0,0 h 107.998 v -28.261 c 0,-2.438 -2.013,-4.451 -4.478,-4.451 H 4.479 C 2.013,-32.712 0,-30.699 0,-28.261 Z"
             style="fill:none;stroke:#7A1B1A;stroke-width:15;stroke-linecap:round;stroke-linejoin:round;stroke-miterlimit:10;stroke-dasharray:none;stroke-opacity:1"
             id="path2289" /></g><g
           id="g2291"
           transform="translate(368.6943,45.4126)"><path
             d="m 0,0 h 107.998 v 28.233 c 0,2.466 -2.013,4.479 -4.478,4.479 H 4.479 C 2.013,32.712 0,30.699 0,28.233 Z"
             style="fill:none;stroke:#7A1B1A;stroke-width:15;stroke-linecap:round;stroke-linejoin:round;stroke-miterlimit:10;stroke-dasharray:none;stroke-opacity:1"
             id="path2293" /></g><path
           d="m 389.699,78.125 h 65.989 v 88.158 h -65.989 z"
           style="fill:none;stroke:#7A1B1A;stroke-width:15;stroke-linecap:round;stroke-linejoin:round;stroke-miterlimit:10;stroke-dasharray:none;stroke-opacity:1"
           id="path2295" /><g
           id="g2297"
           transform="translate(257.0967,368.9897)"><path
             d="M 0,0 C 13.209,0 24.009,10.8 24.009,24.01 24.009,37.219 13.209,48.02 0,48.02 -13.237,48.02 -24.009,37.219 -24.009,24.01 -24.009,10.8 -13.237,0 0,0 Z"
             style="fill:none;stroke:#7A1B1A;stroke-width:15;stroke-linecap:round;stroke-linejoin:round;stroke-miterlimit:10;stroke-dasharray:none;stroke-opacity:1"
             id="path2299" /></g><g
           id="g2301"
           transform="translate(161.2959,317.9194)"><path
             d="m 0,0 c 0,-7.401 -6.001,-13.402 -13.402,-13.402 -3.671,0 -16.918,-0.059 -16.918,-0.059 V 0 13.402 h 16.918 C -6.001,13.402 0,7.402 0,0 Z"
             style="fill:none;stroke:#7A1B1A;stroke-width:15;stroke-linecap:round;stroke-linejoin:round;stroke-miterlimit:10;stroke-dasharray:none;stroke-opacity:1"
             id="path2303" /></g><g
           id="g2305"
           transform="translate(166.5254,288.8242)"><path
             d="m 0,0 c 0,-8.658 -7.019,-15.677 -15.677,-15.677 -4.294,0 -19.873,-0.07 -19.873,-0.07 V 0 15.678 h 19.873 C -7.019,15.678 0,8.659 0,0 Z"
             style="fill:none;stroke:#7A1B1A;stroke-width:15;stroke-linecap:round;stroke-linejoin:round;stroke-miterlimit:10;stroke-dasharray:none;stroke-opacity:1"
             id="path2307" /></g><g
           id="g2309"
           transform="translate(194.7412,273.0776)"><path
             d="m 0,0 21.87,57.423 c 0.447,1.093 1.994,1.095 2.442,0.003 L 45.984,0"
             style="fill:none;stroke:#7A1B1A;stroke-width:15;stroke-linecap:round;stroke-linejoin:round;stroke-miterlimit:10;stroke-dasharray:none;stroke-opacity:1"
             id="path2311" /></g><g
           id="g2313"
           transform="translate(201.5615,287.3794)"><path
             d="M 0,0 H 32.453"
             style="fill:none;stroke:#7A1B1A;stroke-width:15;stroke-linecap:round;stroke-linejoin:round;stroke-miterlimit:10;stroke-dasharray:none;stroke-opacity:1"
             id="path2315" /></g><g
           id="g2317"
           transform="translate(271.3291,273.0776)"><path
             d="M 0,0 V 58.135 L 39.305,1.22 c 0.728,-1.053 1.508,-0.537 1.508,0.743 L 40.27,58.244"
             style="fill:none;stroke:#7A1B1A;stroke-width:15;stroke-linecap:round;stroke-linejoin:round;stroke-miterlimit:10;stroke-dasharray:none;stroke-opacity:1"
             id="path2319" /></g><g
           id="g2321"
           transform="translate(348.9277,332.0498)"><path
             d="M 0,0 V -58.972"
             style="fill:none;stroke:#7A1B1A;stroke-width:15;stroke-linecap:round;stroke-linejoin:round;stroke-miterlimit:10;stroke-dasharray:none;stroke-opacity:1"
             id="path2323" /></g><g
           id="g2325"
           transform="translate(380.6504,331.3057)"><path
             d="M 0,0 -29.835,-27.424 2.094,-58.228"
             style="fill:none;stroke:#7A1B1A;stroke-width:15;stroke-linecap:round;stroke-linejoin:round;stroke-miterlimit:10;stroke-dasharray:none;stroke-opacity:1"
             id="path2327" /></g></g></g></g></svg>
