<svg width="32" height="32" viewBox="0 0 32 32" fill="none" xmlns="http://www.w3.org/2000/svg">
<g clip-path="url(#clip0_3137_8848)">
<path d="M28.25 2.5H26.75V0H24.25V2.5H7.75V0H5.25V2.5H3.75C1.68225 2.5 0 4.18225 0 6.25V28.25C0 30.3177 1.68225 32 3.75 32H28.25C30.3177 32 32 30.3177 32 28.25V6.25C32 4.18225 30.3177 2.5 28.25 2.5ZM29.5 28.25C29.5 28.9392 28.9392 29.5 28.25 29.5H3.75C3.06075 29.5 2.5 28.9392 2.5 28.25V11.75H29.5V28.25ZM29.5 9.25H2.5V6.25C2.5 5.56075 3.06075 5 3.75 5H5.25V7.5H7.75V5H24.25V7.5H26.75V5H28.25C28.9392 5 29.5 5.56075 29.5 6.25V9.25Z" fill="#7A1B1A"/>
<path d="M7.25 14.375H4.75V16.875H7.25V14.375Z" fill="#7A1B1A"/>
<path d="M12.25 14.375H9.75V16.875H12.25V14.375Z" fill="#7A1B1A"/>
<path d="M17.25 14.375H14.75V16.875H17.25V14.375Z" fill="#7A1B1A"/>
<path d="M22.25 14.375H19.75V16.875H22.25V14.375Z" fill="#7A1B1A"/>
<path d="M27.25 14.375H24.75V16.875H27.25V14.375Z" fill="#7A1B1A"/>
<path d="M7.25 19.375H4.75V21.875H7.25V19.375Z" fill="#7A1B1A"/>
<path d="M12.25 19.375H9.75V21.875H12.25V19.375Z" fill="#7A1B1A"/>
<path d="M17.25 19.375H14.75V21.875H17.25V19.375Z" fill="#7A1B1A"/>
<path d="M22.25 19.375H19.75V21.875H22.25V19.375Z" fill="#7A1B1A"/>
<path d="M7.25 24.375H4.75V26.875H7.25V24.375Z" fill="#7A1B1A"/>
<path d="M12.25 24.375H9.75V26.875H12.25V24.375Z" fill="#7A1B1A"/>
<path d="M17.25 24.375H14.75V26.875H17.25V24.375Z" fill="#7A1B1A"/>
<path d="M22.25 24.375H19.75V26.875H22.25V24.375Z" fill="#7A1B1A"/>
<path d="M27.25 19.375H24.75V21.875H27.25V19.375Z" fill="#7A1B1A"/>
</g>
<defs>
<clipPath id="clip0_3137_8848">
<rect width="32" height="32" fill="white"/>
</clipPath>
</defs>
</svg>
