<svg width="512" height="512" viewBox="0 0 512 512" fill="none" xmlns="http://www.w3.org/2000/svg">
<path d="M294.816 347.63C309.695 339.078 321.334 325.852 327.924 310.007C334.515 294.161 335.689 276.583 331.263 260.002C326.838 243.421 317.061 228.765 303.451 218.312C289.84 207.858 273.159 202.191 255.998 202.191C238.836 202.191 222.155 207.858 208.545 218.312C194.935 228.765 185.158 243.421 180.732 260.002C176.307 276.583 177.481 294.161 184.071 310.007C190.662 325.852 202.301 339.078 217.18 347.63C160.298 364.42 118.668 417.117 118.668 479.364C118.668 481.486 119.511 483.521 121.011 485.021C122.511 486.521 124.546 487.364 126.668 487.364H385.329C387.451 487.364 389.485 486.521 390.986 485.021C392.486 483.521 393.329 481.486 393.329 479.364C393.329 417.117 351.698 364.419 294.816 347.63ZM220.116 411.204L199.963 371.77C202.429 370.481 204.943 369.276 207.503 368.154L242.777 391.991L220.116 411.204ZM255.346 437.141H256.646L264.879 471.364H247.114L255.346 437.141ZM258.507 421.141H253.489L246.465 409.841L255.998 401.759L265.531 409.842L258.507 421.141ZM269.219 391.991L304.498 368.154C307.058 369.275 309.571 370.48 312.038 371.769L291.885 411.204L269.219 391.991ZM194.098 280.135C194.098 267.892 197.728 255.926 204.53 245.746C211.331 235.567 220.999 227.633 232.31 222.948C243.62 218.263 256.066 217.037 268.074 219.425C280.081 221.814 291.111 227.709 299.768 236.366C308.425 245.023 314.32 256.053 316.708 268.06C319.097 280.067 317.871 292.513 313.186 303.824C308.501 315.135 300.567 324.802 290.388 331.604C280.208 338.406 268.24 342.036 255.998 342.036C239.586 342.018 223.853 335.489 212.248 323.885C200.643 312.28 194.116 296.546 194.098 280.135ZM285.513 361.669L255.998 381.615L226.482 361.669C245.861 356.822 266.134 356.822 285.513 361.669ZM186.265 380.129L210.465 427.478C211.014 428.552 211.798 429.489 212.76 430.217C213.722 430.945 214.836 431.447 216.02 431.683C217.203 431.92 218.424 431.886 219.592 431.584C220.76 431.282 221.845 430.72 222.765 429.939L234.132 420.302L240.484 430.522L230.66 471.364H134.929C136.132 453.289 141.368 435.711 150.251 419.924C159.135 404.136 171.441 390.539 186.266 380.129H186.265ZM281.339 471.364L271.514 430.522L277.866 420.302L289.233 429.939C290.153 430.72 291.237 431.282 292.406 431.584C293.574 431.886 294.795 431.92 295.978 431.683C297.161 431.447 298.275 430.945 299.237 430.217C300.199 429.489 300.984 428.552 301.533 427.478L325.733 380.128C340.558 390.539 352.864 404.136 361.747 419.924C370.631 435.711 375.867 453.289 377.071 471.364H281.339ZM222.486 92.9995H226.666V155.422C226.669 159.107 228.135 162.641 230.741 165.247C233.347 167.853 236.88 169.319 240.566 169.322H271.437C275.122 169.319 278.656 167.853 281.262 165.247C283.868 162.641 285.334 159.108 285.337 155.422V92.9995H289.513C291.849 92.9987 294.139 92.343 296.121 91.1068C298.104 89.8707 299.701 88.1036 300.73 86.006C301.759 83.9084 302.18 81.5643 301.945 79.2397C301.709 76.9152 300.827 74.7031 299.398 72.8545L265.889 29.4935C264.721 27.9821 263.222 26.7584 261.507 25.9164C259.793 25.0745 257.908 24.6367 255.998 24.6367C254.088 24.6367 252.203 25.0745 250.488 25.9164C248.774 26.7584 247.275 27.9821 246.107 29.4935L212.607 72.8535C211.176 74.7011 210.292 76.913 210.055 79.2379C209.818 81.5629 210.238 83.9076 211.267 86.0059C212.296 88.1041 213.892 89.8718 215.876 91.108C217.859 92.3443 220.149 92.9996 222.486 92.9995ZM255.998 42.8615L282.377 76.9995H277.33C275.208 76.9995 273.173 77.8424 271.673 79.3427C270.173 80.843 269.33 82.8778 269.33 84.9995V153.319H242.666V84.9995C242.666 82.8778 241.823 80.843 240.323 79.3427C238.822 77.8424 236.788 76.9995 234.666 76.9995H229.619L255.998 42.8615ZM78.7418 164.253C79.0372 166.572 79.9772 168.761 81.4548 170.572C82.9324 172.383 84.8884 173.744 87.1006 174.499C89.3127 175.253 91.6923 175.373 93.9688 174.843C96.2454 174.312 98.3276 173.154 99.9788 171.5L102.932 168.549L147.071 212.689C149.679 215.291 153.213 216.752 156.898 216.752C160.582 216.752 164.116 215.291 166.725 212.689L188.552 190.861C191.155 188.253 192.617 184.719 192.617 181.034C192.617 177.349 191.155 173.815 188.552 171.207L144.412 127.067L147.36 124.12C149.013 122.468 150.171 120.386 150.7 118.109C151.23 115.833 151.111 113.454 150.356 111.241C149.602 109.029 148.242 107.073 146.432 105.595C144.622 104.116 142.433 103.175 140.115 102.878L85.7608 95.9105C83.8661 95.6678 81.941 95.8625 80.1333 96.4797C78.3255 97.0969 76.6833 98.1202 75.3327 99.471C73.9821 100.822 72.9591 102.465 72.3421 104.272C71.7252 106.08 71.5308 108.005 71.7738 109.9L78.7418 164.253ZM131.012 117.843L127.443 121.412C125.943 122.912 125.1 124.947 125.1 127.069C125.1 129.19 125.943 131.225 127.443 132.725L175.753 181.035L156.898 199.89L108.59 151.58C107.847 150.837 106.965 150.248 105.994 149.846C105.024 149.444 103.983 149.237 102.933 149.237C101.882 149.237 100.842 149.444 99.8712 149.846C98.9006 150.248 98.0187 150.837 97.2758 151.58L93.7058 155.149L88.2208 112.357L131.012 117.843ZM145.181 295.57V264.7C145.177 261.015 143.711 257.481 141.105 254.875C138.5 252.269 134.966 250.804 131.281 250.8H68.8608V246.632C68.8643 244.294 68.2118 242.002 66.9772 240.016C65.7427 238.03 63.9757 236.431 61.8772 235.399C59.7787 234.368 57.433 233.946 55.1067 234.182C52.7804 234.417 50.5668 235.301 48.7178 236.732L5.35683 270.243C3.84535 271.411 2.62165 272.911 1.77972 274.625C0.937778 276.34 0.5 278.225 0.5 280.135C0.5 282.045 0.937778 283.93 1.77972 285.645C2.62165 287.359 3.84535 288.858 5.35683 290.026L48.7178 323.532C50.5662 324.963 52.779 325.847 55.1047 326.083C57.4304 326.319 59.7756 325.898 61.8739 324.868C63.9723 323.837 65.7395 322.239 66.9748 320.255C68.21 318.27 68.8638 315.979 68.8618 313.641V309.467H131.285C134.969 309.463 138.501 307.997 141.106 305.392C143.711 302.786 145.177 299.254 145.181 295.57ZM129.181 293.47H60.8608C58.739 293.47 56.7042 294.312 55.2039 295.812C53.7036 297.312 52.8608 299.348 52.8608 301.47V306.518L18.7238 280.135L52.8608 253.756V258.799C52.8608 260.921 53.7036 262.957 55.2039 264.457C56.7042 265.957 58.739 266.799 60.8608 266.799H129.181V293.47ZM345.272 212.69C347.88 215.292 351.414 216.753 355.099 216.753C358.783 216.753 362.317 215.292 364.926 212.69L409.065 168.551L412.013 171.499C413.664 173.154 415.746 174.313 418.023 174.844C420.3 175.374 422.68 175.255 424.893 174.5C427.106 173.746 429.062 172.385 430.54 170.574C432.018 168.762 432.958 166.572 433.254 164.253L440.222 109.899C440.465 108.004 440.27 106.079 439.653 104.271C439.036 102.463 438.013 100.821 436.662 99.4698C435.311 98.1191 433.669 97.0959 431.861 96.4789C430.053 95.8619 428.128 95.6675 426.233 95.9105L371.881 102.879C369.562 103.174 367.372 104.114 365.561 105.592C363.75 107.069 362.389 109.025 361.634 111.238C360.879 113.45 360.76 115.83 361.29 118.106C361.819 120.383 362.977 122.466 364.632 124.117L367.583 127.068L323.444 171.208C320.841 173.816 319.378 177.35 319.378 181.035C319.378 184.72 320.841 188.254 323.444 190.862L345.272 212.69ZM384.554 132.726C385.297 131.983 385.886 131.101 386.288 130.131C386.69 129.16 386.897 128.12 386.897 127.069C386.897 126.018 386.69 124.978 386.288 124.007C385.886 123.037 385.297 122.155 384.554 121.412L380.984 117.843L423.776 112.357L418.291 155.149L414.723 151.581C413.98 150.838 413.098 150.249 412.127 149.846C411.156 149.444 410.116 149.237 409.065 149.237C408.015 149.237 406.974 149.444 406.003 149.846C405.033 150.249 404.151 150.838 403.408 151.581L355.098 199.89L336.243 181.035L384.554 132.726ZM506.64 270.245L463.279 236.738C461.43 235.307 459.217 234.423 456.892 234.187C454.566 233.951 452.221 234.372 450.122 235.403C448.024 236.433 446.257 238.031 445.021 240.016C443.786 242.001 443.133 244.292 443.135 246.63V250.8H380.712C377.026 250.804 373.493 252.269 370.887 254.875C368.281 257.481 366.815 261.015 366.812 264.7V295.57C366.815 299.255 368.281 302.789 370.887 305.395C373.493 308.001 377.026 309.466 380.712 309.47H443.135V313.638C443.125 315.979 443.773 318.276 445.007 320.265C446.24 322.255 448.008 323.858 450.109 324.89C452.21 325.923 454.559 326.344 456.887 326.105C459.216 325.865 461.431 324.976 463.278 323.538L506.639 290.031C508.15 288.863 509.374 287.364 510.215 285.65C511.057 283.935 511.495 282.051 511.495 280.141C511.495 278.23 511.057 276.346 510.215 274.631C509.374 272.917 508.15 271.418 506.639 270.25L506.64 270.245ZM459.14 306.515V301.467C459.14 299.345 458.297 297.311 456.797 295.811C455.296 294.311 453.262 293.467 451.14 293.467H382.82V266.799H451.14C453.262 266.799 455.296 265.957 456.797 264.457C458.297 262.957 459.14 260.921 459.14 258.799V253.753L493.277 280.132L459.14 306.515Z" fill="#7A1B1A"/>
</svg>
