<svg xmlns="http://www.w3.org/2000/svg" version="1.1" xmlns:xlink="http://www.w3.org/1999/xlink"
  xmlns:svgjs="http://svgjs.com/svgjs" width="24" height="24" x="0" y="0" viewBox="0 0 512 512"
  style="enable-background:new 0 0 512 512" xml:space="preserve" class="">
  <g>
    <path
      d="M420 36H92a56 56 0 0 0-56 56v328a56 56 0 0 0 56 56h160.67V292.924h-36.615v-73.23h36.312V186.6c0-29.952 14.268-76.746 77.059-76.746l56.565.227v62.741h-41.078c-6.679 0-16.183 3.326-16.183 17.592v29.285h58.195l-6.68 73.23H325.9V476H420a56 56 0 0 0 56-56V92a56 56 0 0 0-56-56z"
      fill="#005221" data-original="#000000" opacity="1" class=""></path>
  </g>
</svg>