<svg width="512" height="512" viewBox="0 0 512 512" fill="none" xmlns="http://www.w3.org/2000/svg">
<path fill-rule="evenodd" clip-rule="evenodd" d="M210.14 100.016C211.556 98.7921 213.357 98.1038 215.229 98.0709C217.101 98.038 218.925 98.6626 220.384 99.836L270.128 139.836C270.946 140.494 271.627 141.308 272.132 142.229C272.636 143.151 272.954 144.163 273.067 145.207C273.181 146.252 273.087 147.308 272.792 148.317C272.497 149.325 272.006 150.265 271.348 151.084C270.689 151.903 269.876 152.584 268.954 153.088C268.033 153.592 267.021 153.91 265.976 154.024C264.932 154.137 263.875 154.043 262.867 153.748C261.859 153.453 260.918 152.962 260.1 152.304L215.56 116.484L135.04 186.08C133.88 187.081 132.457 187.729 130.939 187.945C129.422 188.161 127.875 187.936 126.482 187.299C125.088 186.661 123.907 185.636 123.08 184.346C122.252 183.057 121.812 181.556 121.812 180.024V139.32H101.668V211.264C101.668 212.412 101.421 213.547 100.943 214.591C100.465 215.636 99.7685 216.565 98.8998 217.316L49.4718 260.024C47.8667 261.412 45.7761 262.105 43.66 261.951C41.5438 261.797 39.5754 260.809 38.1878 259.204C36.8002 257.599 36.107 255.508 36.2608 253.392C36.4146 251.276 37.4027 249.308 39.0078 247.92L85.6638 207.6V131.316C85.6638 129.194 86.5067 127.159 88.0069 125.659C89.5072 124.159 91.5421 123.316 93.6638 123.316H129.808C131.93 123.316 133.964 124.159 135.465 125.659C136.965 127.159 137.808 129.194 137.808 131.316V162.532L210.14 100.016ZM369.528 134.136C317.088 134.136 274.576 176.644 274.576 229.084C274.576 281.524 317.088 324.036 369.528 324.036C421.964 324.036 464.476 281.524 464.476 229.084C464.476 176.644 421.964 134.136 369.528 134.136ZM258.576 229.08C258.576 167.804 308.252 118.132 369.528 118.132C430.804 118.132 480.476 167.804 480.476 229.08C480.476 290.356 430.804 340.032 369.528 340.032C308.248 340.032 258.576 290.356 258.576 229.08ZM210.108 153.8C211.52 152.566 213.322 151.867 215.197 151.826C217.073 151.785 218.903 152.405 220.368 153.576L253.616 180.176C254.449 180.828 255.144 181.639 255.662 182.561C256.18 183.484 256.509 184.5 256.632 185.551C256.754 186.601 256.667 187.666 256.375 188.683C256.083 189.699 255.593 190.648 254.932 191.474C254.271 192.3 253.453 192.987 252.525 193.495C251.596 194.002 250.577 194.321 249.525 194.432C248.473 194.543 247.409 194.444 246.396 194.141C245.382 193.839 244.439 193.338 243.62 192.668L215.6 170.252L99.9918 271.324V400.064H173.684V329.596C173.684 327.474 174.527 325.439 176.027 323.939C177.527 322.439 179.562 321.596 181.684 321.596H249.06C251.182 321.596 253.216 322.439 254.717 323.939C256.217 325.439 257.06 327.474 257.06 329.596V400.064H330.752V357.084C330.752 354.962 331.595 352.927 333.095 351.427C334.595 349.927 336.63 349.084 338.752 349.084C340.874 349.084 342.908 349.927 344.409 351.427C345.909 352.927 346.752 354.962 346.752 357.084V408.064C346.752 410.186 345.909 412.221 344.409 413.721C342.908 415.221 340.874 416.064 338.752 416.064H249.06C246.938 416.064 244.903 415.221 243.403 413.721C241.903 412.221 241.06 410.186 241.06 408.064V337.596H189.684V408.064C189.684 410.186 188.841 412.221 187.341 413.721C185.84 415.221 183.806 416.064 181.684 416.064H91.9918C89.8701 416.064 87.8352 415.221 86.3349 413.721C84.8347 412.221 83.9918 410.186 83.9918 408.064V267.692C83.9918 266.551 84.236 265.423 84.7079 264.384C85.1798 263.345 85.8685 262.419 86.7278 261.668L210.108 153.8ZM335.096 183.12C332.155 183.12 329.335 184.288 327.255 186.368C325.176 188.447 324.008 191.267 324.008 194.208C324.008 197.149 325.176 199.969 327.255 202.048C329.335 204.128 332.155 205.296 335.096 205.296C338.037 205.296 340.857 204.128 342.936 202.048C345.016 199.969 346.184 197.149 346.184 194.208C346.184 191.267 345.016 188.447 342.936 186.368C340.857 184.288 338.037 183.12 335.096 183.12ZM308.008 194.208C308.008 187.024 310.862 180.134 315.942 175.054C321.022 169.974 327.912 167.12 335.096 167.12C342.28 167.12 349.17 169.974 354.25 175.054C359.33 180.134 362.184 187.024 362.184 194.208C362.184 201.392 359.33 208.282 354.25 213.362C349.17 218.442 342.28 221.296 335.096 221.296C327.912 221.296 321.022 218.442 315.942 213.362C310.862 208.282 308.008 201.392 308.008 194.208ZM410.824 169.14C411.681 169.747 412.411 170.517 412.971 171.406C413.531 172.295 413.91 173.285 414.088 174.321C414.265 175.356 414.236 176.417 414.004 177.441C413.771 178.466 413.339 179.434 412.732 180.292L337.104 287.116C335.861 288.804 334.005 289.936 331.936 290.27C329.867 290.604 327.75 290.112 326.039 288.901C324.329 287.69 323.162 285.856 322.789 283.794C322.417 281.731 322.869 279.605 324.048 277.872L399.672 171.052C400.279 170.194 401.049 169.465 401.938 168.905C402.827 168.345 403.817 167.965 404.853 167.788C405.888 167.611 406.949 167.64 407.973 167.872C408.998 168.105 409.966 168.533 410.824 169.14ZM402.932 255.108C401.458 255.08 399.993 255.346 398.623 255.891C397.253 256.436 396.005 257.248 394.953 258.281C393.9 259.313 393.064 260.545 392.494 261.905C391.923 263.264 391.629 264.724 391.629 266.198C391.629 267.672 391.923 269.132 392.494 270.491C393.064 271.851 393.9 273.083 394.953 274.115C396.005 275.148 397.253 275.96 398.623 276.505C399.993 277.05 401.458 277.316 402.932 277.288C405.837 277.233 408.604 276.04 410.639 273.966C412.673 271.893 413.813 269.103 413.813 266.198C413.813 263.293 412.673 260.503 410.639 258.43C408.604 256.356 405.837 255.163 402.932 255.108ZM375.84 266.2C375.84 259.015 378.694 252.124 383.775 247.043C388.856 241.962 395.747 239.108 402.932 239.108C410.117 239.108 417.008 241.962 422.089 247.043C427.169 252.124 430.024 259.015 430.024 266.2C430.024 273.385 427.169 280.276 422.089 285.357C417.008 290.438 410.117 293.292 402.932 293.292C395.747 293.292 388.856 290.438 383.775 285.357C378.694 280.276 375.84 273.385 375.84 266.2Z" fill="#00A6BC"/>
</svg>
