<svg width="512" height="410" viewBox="0 0 512 410" fill="none" xmlns="http://www.w3.org/2000/svg">
<g clip-path="url(#clip0_3138_8909)">
<mask id="mask0_3138_8909" style="mask-type:luminance" maskUnits="userSpaceOnUse" x="0" y="0" width="512" height="410">
<path d="M512 0H0V410H512V0Z" fill="white"/>
</mask>
<g mask="url(#mask0_3138_8909)">
<path d="M136.542 341.326H119.476C119.476 327.747 114.082 314.724 104.48 305.123C94.8783 295.521 81.8557 290.127 68.2769 290.127C54.6981 290.127 41.6755 295.521 32.0738 305.123C22.4722 314.724 17.078 327.747 17.078 341.326H0.0117188V68.2652C0.0117188 50.1601 7.20392 32.7966 20.0061 19.9944C32.8083 7.1922 50.1718 0 68.2769 0C86.3819 0 103.745 7.1922 116.548 19.9944C129.35 32.7966 136.542 50.1601 136.542 68.2652V341.326ZM68.2769 273.061C77.963 273.062 87.5379 275.125 96.3654 279.112C105.193 283.099 113.071 288.919 119.476 296.185V68.2652C119.476 54.6864 114.082 41.6637 104.48 32.0621C94.8783 22.4604 81.8557 17.0663 68.2769 17.0663C54.6981 17.0663 41.6755 22.4604 32.0738 32.0621C22.4722 41.6637 17.078 54.6864 17.078 68.2652V296.185C23.483 288.919 31.3609 283.099 40.1884 279.112C49.0159 275.125 58.5907 273.062 68.2769 273.061Z" fill="#7A1B1A"/>
<path d="M512 409.591H68.2765C56.868 409.593 45.641 406.735 35.6214 401.28C25.6019 395.825 17.1093 387.945 10.9199 378.361C4.73047 368.778 1.04157 357.796 0.190316 346.419C-0.660938 335.043 1.3526 323.634 6.04692 313.236C10.7412 302.838 17.9666 293.783 27.0628 286.897C36.1589 280.011 46.8357 275.515 58.1174 273.819C69.3991 272.123 80.926 273.282 91.6445 277.189C102.363 281.096 111.931 287.627 119.475 296.185V59.7314H512V409.591ZM68.2765 290.127C54.6977 290.127 41.6751 295.521 32.0734 305.123C22.4718 314.724 17.0776 327.747 17.0776 341.326C17.0776 354.904 22.4718 367.927 32.0734 377.529C41.6751 387.13 54.6977 392.525 68.2765 392.525H494.934V76.7977H136.542V341.326H119.475C119.475 327.747 114.081 314.724 104.48 305.123C94.8779 295.521 81.8553 290.127 68.2765 290.127Z" fill="#7A1B1A"/>
<path d="M68.2769 409.591C50.1718 409.591 32.8083 402.399 20.0061 389.597C7.20392 376.794 0.0117188 359.431 0.0117188 341.326C0.0117188 339.063 0.910743 336.892 2.51102 335.292C4.11129 333.692 6.28173 332.793 8.54486 332.793C10.808 332.793 12.9784 333.692 14.5787 335.292C16.179 336.892 17.078 339.063 17.078 341.326C17.078 354.905 22.4722 367.927 32.0738 377.529C41.6755 387.131 54.6981 392.525 68.2769 392.525C70.54 392.525 72.7104 393.424 74.3107 395.024C75.911 396.624 76.81 398.795 76.81 401.058C76.81 403.321 75.911 405.492 74.3107 407.092C72.7104 408.692 70.54 409.591 68.2769 409.591ZM366.937 375.459H213.34V349.859H230.407V358.392H349.871V349.859H366.937V375.459ZM452.268 324.26H426.669V307.193H435.202V110.931H426.669V93.8643H452.268V324.26ZM401.07 324.26H349.871V145.064H332.804V127.997H366.937V307.193H401.07V324.26ZM230.407 324.26H179.208V307.193H213.34V127.997H247.473V145.064H230.407V324.26ZM324.271 324.26H307.205V281.594H273.072V324.26H256.006V264.528H324.271V324.26ZM247.473 162.13H264.539V179.196H247.473V162.13ZM281.606 162.13H298.672V179.196H281.606V162.13ZM315.738 162.13H332.804V179.196H315.738V162.13ZM247.473 196.262H264.539V213.329H247.473V196.262ZM281.606 196.262H298.672V213.329H281.606V196.262ZM315.738 196.262H332.804V213.329H315.738V196.262ZM247.473 230.395H264.539V247.461H247.473V230.395ZM281.606 230.395H298.672V247.461H281.606V230.395ZM315.738 230.395H332.804V247.461H315.738V230.395Z" fill="#7A1B1A"/>
<path d="M341.334 145.064H238.938V93.8643H341.334V145.064ZM256.003 127.997H324.269V110.931H256.003V127.997Z" fill="#7A1B1A"/>
</g>
</g>
<defs>
<clipPath id="clip0_3138_8909">
<rect width="512" height="410" fill="white"/>
</clipPath>
</defs>
</svg>
