<svg width="512" height="512" viewBox="0 0 512 512" fill="none" xmlns="http://www.w3.org/2000/svg">
<g clip-path="url(#clip0_3138_8918)">
<mask id="mask0_3138_8918" style="mask-type:luminance" maskUnits="userSpaceOnUse" x="0" y="0" width="512" height="512">
<path d="M512 0H0V512H512V0Z" fill="white"/>
</mask>
<g mask="url(#mask0_3138_8918)">
<path d="M458.53 340.171L425.156 332.197V320.474C443.59 309.584 455.989 289.518 455.989 266.6V222.353C455.989 187.87 427.934 159.816 393.451 159.816H386.535C368.124 159.816 351.55 167.817 340.096 180.52C329.003 144.615 295.501 118.452 256.001 118.452C216.501 118.452 182.999 144.613 171.906 180.52C160.452 167.817 143.878 159.816 125.467 159.816H118.551C84.0687 159.816 56.0127 187.87 56.0127 222.353V266.6C56.0127 289.517 68.4117 309.584 86.8457 320.474V332.197L53.4717 340.171C21.9977 347.691 0.015625 375.542 0.015625 407.901V438.003C0.015625 443.525 4.49362 448.002 10.0147 448.002H90.7767C90.2654 451.988 90.0092 456.003 90.0097 460.022V492H30.0137C24.4917 492 20.0147 496.478 20.0147 501.999C20.0147 507.521 24.4927 511.998 30.0137 511.998H481.987C487.509 511.998 491.986 507.52 491.986 501.999C491.986 496.477 487.508 492 481.987 492H421.991V460.07C421.991 455.987 421.728 451.959 421.218 448.003H501.986C507.508 448.003 511.985 443.525 511.985 438.004V407.902C511.986 375.542 490.003 347.69 458.53 340.171ZM343.997 222.353C343.996 198.897 363.079 179.814 386.536 179.814H393.452C416.909 179.814 435.992 198.897 435.992 222.353V224.917C421.584 224.753 407.523 220.469 395.47 212.572C393.843 211.506 391.94 210.938 389.995 210.938C388.05 210.938 386.147 211.506 384.52 212.572C372.468 220.47 358.407 224.754 343.998 224.917V222.353H343.997ZM343.996 258.444V244.918C360.186 244.762 375.948 240.546 389.993 232.635C404.038 240.547 419.8 244.762 435.99 244.918V266.601C435.99 290.058 416.907 309.141 393.45 309.141H386.534C363.077 309.141 343.994 290.058 343.994 266.601V258.444H343.996ZM363.174 373.54C359.064 371.917 354.846 370.585 350.549 369.554L318.769 361.961C321.137 360.985 323.578 360.195 326.068 359.596L357.655 352.026L363.174 373.54ZM354.896 320.513V332.123L321.407 340.148C314.214 341.87 307.341 344.73 301.049 348.619V334.005C314.79 325.777 326.044 313.979 333.617 299.867C338.966 308.344 346.261 315.422 354.896 320.513ZM323.998 258.444C323.998 295.937 293.495 326.44 256.002 326.44C218.509 326.44 188.006 295.937 188.006 258.444V229.152H198.996C227.069 229.152 253.815 220.194 275.803 203.926L278.095 207.351C282.576 214.064 288.647 219.567 295.766 223.37C302.886 227.174 310.834 229.16 318.906 229.152H323.999L323.998 258.444ZM188.004 206.446C188.004 168.954 218.507 138.451 256 138.451C293.493 138.451 323.996 168.954 323.996 206.447V209.153H318.903C314.119 209.158 309.408 207.981 305.188 205.726C300.969 203.472 297.371 200.211 294.715 196.232L291.017 190.704C294.036 187.645 296.903 184.44 299.607 181.1C303.079 176.805 302.411 170.509 298.115 167.038C293.823 163.566 287.525 164.233 284.053 168.53C263.19 194.346 232.188 209.152 198.995 209.152H188.004V206.446ZM178.384 299.867C185.974 314.012 197.262 325.83 211.044 334.06V348.675C204.727 344.757 197.822 341.879 190.593 340.149L157.105 332.124V320.514C165.739 315.422 173.034 308.344 178.384 299.867ZM193.122 361.917L161.386 369.522C157.117 370.55 152.924 371.875 148.839 373.487L154.346 352.028L185.932 359.598C188.397 360.188 190.798 360.968 193.122 361.917ZM76.0127 222.353C76.0117 198.897 95.0947 179.814 118.551 179.814H125.467C148.924 179.814 168.007 198.897 168.007 222.353V224.917C153.599 224.753 139.538 220.469 127.485 212.572C125.858 211.506 123.955 210.938 122.01 210.938C120.065 210.938 118.162 211.506 116.535 212.572C104.483 220.47 90.4224 224.754 76.0137 224.917L76.0127 222.353ZM76.0117 266.601V244.918C92.2017 244.762 107.963 240.546 122.008 232.635C136.053 240.547 151.815 244.762 168.005 244.918V266.601C168.005 290.058 148.922 309.141 125.465 309.141H118.549C95.0947 309.141 76.0117 290.058 76.0117 266.601ZM95.6517 428.007H20.0147V407.902C20.0147 384.836 35.6837 364.982 58.1177 359.624L89.6027 352.102L104.477 410.084C100.897 415.722 97.9381 421.732 95.6517 428.007ZM106.845 328.024C110.703 328.762 114.622 329.136 118.55 329.139H125.466C129.445 329.139 133.332 328.75 137.106 328.036V338.746L124.576 387.581C123.11 388.754 121.681 389.971 120.289 391.231L106.845 338.826V328.024ZM110.009 492.001V460.025C110.009 435.776 121.784 413.939 140.545 400.561L231.985 492.001H110.009ZM159.231 390.964C161.47 390.191 163.745 389.525 166.047 388.97L213.803 377.526L237.274 469.007L159.231 390.964ZM231.042 364.246V342.83C239.144 345.229 247.55 346.445 256 346.441C264.7 346.441 273.106 345.166 281.05 342.803V364.361L256.062 461.762L231.042 364.246ZM298.291 377.632L345.903 389.006C348.274 389.577 350.616 390.264 352.919 391.066L274.806 469.18L298.291 377.632ZM401.992 492.001H280.267L371.573 400.694C390.266 414.075 401.992 435.868 401.992 460.071V492.001ZM405.158 338.828L391.704 391.269C390.32 390.016 388.898 388.806 387.44 387.639L374.896 338.748V328.038C378.733 328.768 382.63 329.138 386.536 329.141H393.452C397.454 329.141 401.364 328.748 405.158 328.026V338.828ZM491.987 428.005H416.335C414.049 421.74 411.092 415.741 407.516 410.112L422.398 352.101L453.883 359.623C476.318 364.982 491.986 384.836 491.986 407.901V428.005H491.987ZM256 0C250.479 0 246.001 4.478 246.001 9.999V52.813C246.001 58.336 250.478 62.812 256 62.812C261.522 62.812 265.999 58.334 265.999 52.813V9.999C266 4.478 261.522 0 256 0ZM263.069 80.515C261.19 78.6468 258.65 77.5941 256 77.585C253.359 77.585 250.79 78.655 248.93 80.515C247.06 82.3936 246.007 84.9344 246 87.585C246 90.215 247.069 92.795 248.93 94.655C250.79 96.515 253.37 97.585 256 97.585C258.63 97.585 261.21 96.515 263.069 94.655C264.936 92.7745 265.989 90.235 266 87.585C266 84.945 264.93 82.375 263.069 80.515ZM189.505 82.784L152.454 45.741C148.549 41.836 142.218 41.838 138.312 45.743C134.408 49.648 134.409 55.979 138.314 59.885L175.366 96.928C176.294 97.8577 177.396 98.5949 178.609 99.0974C179.822 99.5999 181.123 99.8577 182.436 99.856C183.75 99.8576 185.051 99.5996 186.265 99.0968C187.478 98.5939 188.581 97.8562 189.508 96.926C193.411 93.022 193.41 86.69 189.505 82.784ZM375.183 44.187C371.278 40.285 364.949 40.283 361.041 44.187L321.733 83.494C317.828 87.399 317.828 93.73 321.733 97.636C323.687 99.589 326.246 100.565 328.805 100.565C331.364 100.565 333.923 99.588 335.876 97.636L375.184 58.329C379.088 54.424 379.088 48.092 375.183 44.187Z" fill="#7A1B1A"/>
</g>
</g>
<defs>
<clipPath id="clip0_3138_8918">
<rect width="512" height="512" fill="white"/>
</clipPath>
</defs>
</svg>
