<svg width="512" height="512" viewBox="0 0 512 512" fill="none" xmlns="http://www.w3.org/2000/svg">
<path d="M496.125 456H464.125V144H496.125C497.707 144 499.253 143.53 500.569 142.651C501.884 141.772 502.909 140.523 503.514 139.061C504.12 137.6 504.278 135.991 503.97 134.44C503.661 132.888 502.9 131.463 501.781 130.344L381.781 10.3442C380.281 8.84447 378.246 8.00195 376.125 8.00195C374.004 8.00195 371.969 8.84447 370.469 10.3442L340.813 40.0002H216.125C214.003 40.0002 211.968 40.8431 210.468 42.3433C208.968 43.8436 208.125 45.8785 208.125 48.0002C208.125 50.1219 208.968 52.1568 210.468 53.6571C211.968 55.1573 214.003 56.0002 216.125 56.0002H324.813L308.813 72.0002H160.125V56.0002H184.125C186.247 56.0002 188.282 55.1573 189.782 53.6571C191.282 52.1568 192.125 50.1219 192.125 48.0002C192.125 45.8785 191.282 43.8436 189.782 42.3433C188.282 40.8431 186.247 40.0002 184.125 40.0002H152.125C150.003 40.0002 147.968 40.8431 146.468 42.3433C144.968 43.8436 144.125 45.8785 144.125 48.0002V80.0002C144.125 82.1219 144.968 84.1568 146.468 85.6571C147.968 87.1573 150.003 88.0002 152.125 88.0002H168.125V104H40.125C38.0033 104 35.9685 104.843 34.4682 106.343C32.9679 107.843 32.125 109.878 32.125 112V144C32.125 146.122 32.9679 148.157 34.4682 149.657C35.9685 151.157 38.0033 152 40.125 152H48.125V260.688L10.469 298.345C9.35087 299.464 8.58952 300.889 8.28118 302.441C7.97283 303.992 8.13134 305.6 8.73666 307.061C9.34198 308.523 10.367 309.772 11.682 310.651C12.9971 311.53 14.5432 311.999 16.125 312H48.125V456H16.125C14.0033 456 11.9685 456.843 10.4682 458.343C8.96786 459.843 8.125 461.878 8.125 464V496C8.125 498.122 8.96786 500.157 10.4682 501.657C11.9685 503.157 14.0033 504 16.125 504H56.125C58.2468 504 60.2816 503.157 61.7819 501.657C63.2822 500.157 64.125 498.122 64.125 496C64.125 493.878 63.2822 491.843 61.7819 490.343C60.2816 488.843 58.2468 488 56.125 488H24.125V472H488.125V488H88.125C86.0033 488 83.9685 488.843 82.4682 490.343C80.9679 491.843 80.125 493.878 80.125 496C80.125 498.122 80.9679 500.157 82.4682 501.657C83.9685 503.157 86.0033 504 88.125 504H496.125C498.247 504 500.282 503.157 501.782 501.657C503.282 500.157 504.125 498.122 504.125 496V464C504.125 461.878 503.282 459.843 501.782 458.343C500.282 456.843 498.247 456 496.125 456ZM448.125 264H432.125V200C432.125 185.148 426.225 170.904 415.723 160.402C405.221 149.9 390.977 144 376.125 144C361.273 144 347.029 149.9 336.527 160.402C326.025 170.904 320.125 185.148 320.125 200V264H304.125V139.313L376.125 67.3132L448.125 139.313V264ZM384.125 160.808C391.803 162.391 398.85 166.188 404.393 171.732C409.937 177.275 413.734 184.322 415.317 192H384.125V160.808ZM368.125 192H336.934C338.517 184.322 342.314 177.276 347.857 171.732C353.401 166.189 360.447 162.391 368.125 160.808V192ZM336.125 208H368.125V264H336.125V208ZM384.125 208H416.125V264H384.125V208ZM304.125 280H448.125V296H304.125V280ZM376.125 27.3122L476.813 128H459.438L381.781 50.3452C380.281 48.8454 378.246 48.0029 376.125 48.0029C374.004 48.0029 371.969 48.8454 370.469 50.3452L292.813 128H275.438L317.776 85.6612L317.788 85.6492L349.776 53.6612L349.788 53.6492L376.125 27.3122ZM292.813 88.0002L250.469 130.344C249.351 131.463 248.589 132.888 248.28 134.44C247.972 135.991 248.13 137.6 248.736 139.061C249.341 140.523 250.366 141.772 251.681 142.651C252.997 143.53 254.543 144 256.125 144H288.125V400C288.125 402.122 288.968 404.157 290.468 405.657C291.968 407.157 294.003 408 296.125 408C298.247 408 300.282 407.157 301.782 405.657C303.282 404.157 304.125 402.122 304.125 400V312H448.125V456H432.125V336C432.125 333.878 431.282 331.843 429.782 330.343C428.282 328.843 426.247 328 424.125 328H328.125C326.003 328 323.968 328.843 322.468 330.343C320.968 331.843 320.125 333.878 320.125 336V456H304.125V432C304.125 429.878 303.282 427.843 301.782 426.343C300.282 424.843 298.247 424 296.125 424C294.003 424 291.968 424.843 290.468 426.343C288.968 427.843 288.125 429.878 288.125 432V456H224.125V312H256.125C257.707 312 259.253 311.53 260.569 310.651C261.884 309.772 262.909 308.523 263.514 307.061C264.12 305.6 264.278 303.991 263.97 302.44C263.661 300.888 262.9 299.463 261.781 298.344L184.125 220.687V88.0002H292.813ZM416.125 360H400.125V344H416.125V360ZM384.125 360H368.125V344H384.125V360ZM352.125 360H336.125V344H352.125V360ZM336.125 376H416.125V456H336.125V376ZM48.125 120H168.125V136H48.125V120ZM64.125 152H168.125V204.687L141.781 178.345C140.281 176.845 138.246 176.003 136.125 176.003C134.004 176.003 131.969 176.845 130.469 178.345L64.125 244.688V152ZM136.125 195.312L236.813 296H219.438L141.781 218.345C140.281 216.845 138.246 216.003 136.125 216.003C134.004 216.003 131.969 216.845 130.469 218.345L52.813 296H35.438L136.125 195.312ZM64.125 307.312L136.125 235.312L208.125 307.312V456H184.125V376C184.125 363.27 179.068 351.061 170.066 342.059C161.064 333.057 148.855 328 136.125 328C123.395 328 111.186 333.057 102.184 342.059C93.1822 351.061 88.125 363.27 88.125 376V456H64.125V307.312ZM168.125 456H104.125V376C104.125 367.513 107.496 359.374 113.498 353.373C119.499 347.371 127.638 344 136.125 344C144.612 344 152.751 347.371 158.752 353.373C164.754 359.374 168.125 367.513 168.125 376V456Z" fill="#7A1B1A"/>
</svg>
