<svg width="512" height="512" viewBox="0 0 512 512" fill="none" xmlns="http://www.w3.org/2000/svg">
<path d="M151.651 220.942L151.633 221.268C150.371 243.363 162.748 264.062 183.172 273.985L183.381 274.089C190.583 277.535 196.483 283.209 200.207 290.271L200.29 290.425C210.582 310.02 231.867 321.899 254.559 320.707L254.903 320.688C263.133 320.227 271.301 322.351 278.263 326.763C287.681 332.653 298.565 335.776 309.672 335.776C320.78 335.776 331.664 332.653 341.081 326.763C348.044 322.351 356.212 320.227 364.442 320.688L364.787 320.707C387.44 321.907 408.753 310.019 419.067 290.392L419.119 290.285C422.854 283.205 428.773 277.519 435.996 274.069L436.163 273.985C456.588 264.057 468.968 243.362 467.703 221.264L467.684 220.956C467.264 213.173 469.427 205.47 473.837 199.044C486.539 180.517 486.539 156.09 473.842 137.562C469.432 131.138 467.267 123.438 467.684 115.657L467.703 115.331C468.968 93.2314 456.587 72.5377 436.145 62.6048L435.959 62.5119C428.773 59.0779 422.881 53.4235 419.155 46.3842L419.048 46.1745C408.753 26.5793 387.44 14.7054 364.787 15.8922L364.438 15.9113C356.211 16.3725 348.045 14.2485 341.086 9.83674H341.076C331.659 3.94661 320.775 0.823242 309.667 0.823242C298.56 0.823242 287.676 3.94661 278.259 9.83674C271.295 14.2449 263.127 16.3671 254.898 15.9065L254.553 15.8875C231.895 14.6864 210.587 26.5745 200.296 46.1649L200.216 46.3103C196.49 53.3829 190.584 59.066 183.373 62.5167L183.176 62.6096C162.753 72.5329 150.372 93.2326 151.638 115.331L151.656 115.638C152.077 123.42 149.914 131.123 145.503 137.547C132.801 156.076 132.801 180.509 145.503 199.033C149.912 205.458 152.074 213.161 151.651 220.942ZM161.193 148.374C168.002 138.46 171.341 126.572 170.688 114.562L170.669 114.236C170.343 107.076 172.146 99.9804 175.852 93.8456C179.558 87.7108 185 82.8126 191.489 79.7704L191.653 79.6906C202.538 74.4781 211.453 65.896 217.076 55.2172L217.169 55.0408C224.006 42.0171 238.328 34.1231 253.539 34.9333L253.873 34.9464C266.044 35.6323 278.124 32.4928 288.42 25.968C294.791 21.9828 302.154 19.8695 309.668 19.8695C317.182 19.8695 324.545 21.9828 330.916 25.968C341.214 32.4855 353.289 35.6263 365.457 34.9524L365.792 34.9333C381.077 34.1326 395.33 42.0171 402.148 55.0027L402.273 55.241C407.896 65.9042 416.802 74.4737 427.674 79.681L427.832 79.7609C441.311 86.3144 449.495 99.8446 448.67 114.24L448.651 114.58C448.001 126.588 451.341 138.474 458.151 148.386C462.172 154.249 464.322 161.192 464.32 168.302C464.319 175.411 462.165 182.353 458.142 188.215C451.337 198.132 448 210.021 448.651 222.031L448.67 222.352C449.494 236.748 441.311 250.283 427.828 256.841L427.688 256.908C416.791 262.129 407.868 270.723 402.241 281.417L402.172 281.556C395.329 294.58 381.03 302.479 365.796 301.664L365.466 301.646C353.293 300.967 341.212 304.108 330.911 310.629C324.542 314.612 317.18 316.724 309.668 316.724C302.156 316.724 294.795 314.612 288.425 310.629C279.059 304.694 268.197 301.547 257.108 301.557C256.034 301.557 254.954 301.585 253.873 301.646L253.54 301.659C246.187 302.126 238.854 300.479 232.407 296.913C225.959 293.347 220.667 288.01 217.154 281.534L217.057 281.352C211.442 270.692 202.542 262.126 191.677 256.921L191.498 256.832C178.014 250.278 169.832 236.742 170.661 222.352L170.679 222.012C171.326 210.004 167.986 198.119 161.18 188.205C157.162 182.342 155.013 175.4 155.015 168.292C155.017 161.184 157.171 154.243 161.193 148.382V148.374Z" fill="#7A1B1A"/>
<path d="M248.164 266.845C252.628 269.634 258.507 268.269 261.295 263.806L374.218 82.9031C374.881 81.841 375.328 80.6588 375.534 79.4238C375.74 78.1889 375.701 76.9255 375.419 75.7057C375.136 74.4859 374.617 73.3337 373.889 72.3148C373.162 71.2959 372.24 70.4303 371.178 69.7674C370.116 69.1045 368.934 68.6572 367.699 68.4512C366.464 68.2452 365.201 68.2845 363.981 68.5667C362.761 68.849 361.609 69.3687 360.59 70.0963C359.571 70.8238 358.706 71.745 358.043 72.807L245.125 253.71C244.461 254.772 244.014 255.954 243.808 257.189C243.601 258.424 243.64 259.687 243.923 260.907C244.205 262.127 244.724 263.279 245.452 264.298C246.18 265.317 247.102 266.183 248.164 266.845ZM258.283 168.77C281.495 168.77 300.383 147.233 300.383 120.762C300.383 94.2896 281.495 72.7618 258.283 72.7618C235.072 72.7618 216.188 94.2932 216.188 120.764C216.188 147.235 235.07 168.77 258.283 168.77ZM258.283 91.8255C270.985 91.8255 281.318 104.807 281.318 120.763C281.318 136.719 270.985 149.705 258.283 149.705C245.585 149.705 235.253 136.714 235.253 120.762C235.253 104.812 245.585 91.8255 258.283 91.8255ZM318.96 215.844C318.96 242.316 337.842 263.846 361.055 263.846C384.268 263.846 403.155 242.311 403.155 215.846C403.155 189.385 384.271 167.844 361.06 167.844C337.842 167.844 318.96 189.369 318.96 215.844ZM384.09 215.844C384.09 231.801 373.757 244.783 361.055 244.783C348.356 244.783 338.024 231.801 338.024 215.846C338.024 199.891 348.356 186.909 361.055 186.909C373.757 186.909 384.09 199.879 384.09 215.844ZM510.762 374.137C498.14 351.734 470.147 343.203 447.177 354.755L372.505 390.036C367.438 380.615 359.976 372.698 350.873 367.081C341.769 361.465 331.345 358.348 320.653 358.046L251.72 356.147C240.802 355.832 230.095 353.067 220.39 348.056L213.376 344.422C195.68 335.199 176.016 330.393 156.061 330.414C136.106 330.435 116.453 335.283 98.7766 344.543L99.215 328.653C99.2499 327.401 99.0379 326.154 98.591 324.984C98.144 323.814 97.471 322.745 96.6103 321.835C95.7497 320.926 94.7182 320.195 93.5749 319.684C92.4316 319.173 91.1989 318.892 89.9471 318.858L14.3583 316.779C13.1071 316.744 11.8612 316.957 10.692 317.404C9.52284 317.851 8.45317 318.524 7.54415 319.384C6.63513 320.245 5.90456 321.276 5.3942 322.419C4.88384 323.562 4.60367 324.794 4.56971 326.046L0.003672 491.928C-0.0310755 493.18 0.181069 494.426 0.627991 495.595C1.07491 496.765 1.74785 497.834 2.60838 498.743C3.46891 499.653 4.50016 500.385 5.64325 500.896C6.78633 501.406 8.01885 501.687 9.27041 501.721L84.8604 503.802H85.1249C87.6072 503.8 89.991 502.83 91.7702 501.099C93.5493 499.368 94.5837 497.012 94.6538 494.53L94.8682 486.595L114.505 476.079C122.211 471.932 131.228 470.946 139.648 473.329L256.909 506.24C257.114 506.302 257.319 506.347 257.529 506.395C266.006 508.167 274.645 509.058 283.306 509.052C301.645 509.063 319.77 505.108 336.437 497.458C336.846 497.271 337.242 497.058 337.619 496.815L507.639 386.834C509.681 385.515 511.142 383.465 511.722 381.105C512.303 378.744 511.959 376.252 510.762 374.137ZM19.3259 482.92L23.3653 336.103L79.8999 337.657L75.8534 484.48L19.3259 482.92ZM327.846 480.421C307.137 489.767 284.01 492.347 261.751 487.793L144.802 454.974C131.643 451.253 117.553 452.794 105.509 459.271L95.4736 464.643L98.1641 367.023C129.958 345.873 170.742 343.7 204.608 361.344L211.623 364.978C223.882 371.31 237.408 374.804 251.199 375.202L320.133 377.1C339.496 377.654 355.94 391.44 359.869 410.411L257.19 407.587C255.939 407.553 254.693 407.765 253.524 408.212C252.355 408.659 251.285 409.332 250.376 410.193C249.467 411.053 248.737 412.084 248.226 413.227C247.716 414.37 247.436 415.603 247.402 416.854C247.367 418.106 247.579 419.352 248.026 420.521C248.473 421.691 249.146 422.761 250.007 423.67C250.867 424.58 251.898 425.311 253.041 425.822C254.184 426.332 255.417 426.613 256.669 426.647L369.983 429.766H370.252C372.734 429.763 375.117 428.793 376.895 427.062C378.673 425.331 379.707 422.974 379.777 420.493C379.891 416.35 379.582 412.207 378.854 408.126L455.431 371.938L455.654 371.831C460.957 369.145 466.956 368.146 472.844 368.97C478.732 369.794 484.227 372.4 488.59 376.439L327.846 480.421Z" fill="#7A1B1A"/>
</svg>
