<svg width="329" height="100" viewBox="0 0 329 100" fill="none" xmlns="http://www.w3.org/2000/svg">
<path d="M312.729 99.7572H310.344V80.4881H312.729V99.7572ZM289.956 99.7572V80.4881H292.341V97.6367H307.317V99.7572H289.956ZM269.624 99.7572V80.4881H272.009V97.6367H286.985V99.7572H269.624ZM241.716 99.7572L252.903 80.4881H256.083L267.295 99.7572H264.759L262.233 95.5161H246.91L244.448 99.7572H241.716ZM248.075 93.4755H261.071L254.519 82.4027L248.075 93.4755ZM224.617 89.9751H236.301C238.038 89.9751 239.187 89.7662 239.752 89.3513C240.318 88.9364 240.601 88.0667 240.601 86.736V85.8171C240.601 84.4864 240.318 83.6166 239.752 83.2018C239.187 82.7869 238.038 82.5779 236.301 82.5779H224.617V89.9751ZM224.617 99.7572H222.232V80.4881H235.616C238.683 80.4881 240.708 80.8139 241.695 81.4746C242.681 82.1292 243.17 83.3247 243.17 85.0703V87.5965C243.17 89.3359 242.681 90.5345 241.698 91.1768C240.717 91.8252 238.689 92.1479 235.616 92.1479H224.617V99.7572ZM200.08 89.9751H211.765C213.501 89.9751 214.65 89.7662 215.216 89.3513C215.781 88.9364 216.064 88.0667 216.064 86.736V85.8171C216.064 84.4864 215.781 83.6166 215.216 83.2018C214.65 82.7869 213.501 82.5779 211.765 82.5779H200.08V89.9751ZM200.08 99.7572H197.695V80.4881H211.079C214.146 80.4881 216.175 80.8139 217.158 81.4746C218.142 82.1292 218.633 83.3247 218.633 85.0703V87.5965C218.633 89.3359 218.145 90.5345 217.161 91.1768C216.181 91.8252 214.153 92.1479 211.079 92.1479H200.08V99.7572ZM169.787 99.7572L180.974 80.4881H184.155L195.366 99.7572H192.831L190.304 95.5161H174.981L172.52 99.7572H169.787ZM176.143 93.4755H189.14L182.587 82.4027L176.143 93.4755ZM149.013 99.7572H146.628V80.4881H160.383C163.444 80.4881 165.473 80.8139 166.472 81.4654C167.464 82.12 167.965 83.3155 167.965 85.0703V87.3906C167.965 88.5799 167.719 89.4527 167.224 90.0059C166.73 90.559 165.848 90.9709 164.585 91.2352C165.636 91.3519 166.425 91.7207 166.96 92.3569C167.495 92.9899 167.759 93.8689 167.759 94.9906V99.7603H165.368V95.467C165.368 94.21 165.095 93.3526 164.548 92.8916C163.998 92.4368 162.719 92.2063 160.709 92.2063H149.016V99.7572H149.013ZM161.161 82.581H149.013V89.9751H161.161C162.888 89.9751 164.031 89.7631 164.597 89.3359C165.162 88.9057 165.445 88.0421 165.445 86.739V85.8201C165.445 84.5263 165.162 83.6597 164.597 83.2325C164.031 82.7961 162.888 82.581 161.161 82.581ZM141.729 99.7572H139.344V80.4881H141.729V99.7572ZM114.715 99.7572H112.331V80.4881H114.715V88.7827H132.184V80.4881H134.568V99.7572H132.184V90.8786H114.715V99.7572ZM93.9866 99.9969C92.0105 99.9969 90.5661 99.8955 89.6626 99.6926C88.759 99.4898 88.0153 99.1395 87.4376 98.6508C86.7983 98.1069 86.3312 97.3877 86.0423 96.4903C85.7565 95.5899 85.609 94.4006 85.609 92.9254V87.6764C85.609 86.0691 85.7565 84.7906 86.0423 83.8379C86.3343 82.8883 86.7983 82.1415 87.4376 81.5975C88.0123 81.1089 88.7713 80.7586 89.7025 80.5557C90.6337 80.3529 92.0535 80.2515 93.9651 80.2515H100.035C103.172 80.2515 105.296 80.6387 106.399 81.4224C107.506 82.203 108.056 83.632 108.056 85.6941C108.056 85.9646 108.053 86.1705 108.047 86.318C108.043 86.4624 108.037 86.6007 108.028 86.7206H105.828V86.4348C105.828 84.932 105.496 83.8779 104.838 83.2755C104.174 82.6762 103.013 82.3751 101.347 82.3751H93.0032C91.863 82.3751 90.9748 82.4796 90.3448 82.6978C89.7087 82.9129 89.2139 83.2755 88.8605 83.7764C88.6115 84.1299 88.4364 84.554 88.3319 85.0488C88.2305 85.5405 88.1782 86.3672 88.1782 87.5227V87.8853V92.6335C88.1782 93.7921 88.2305 94.6188 88.3319 95.1074C88.4364 95.5991 88.6146 96.0232 88.8605 96.3766C89.2139 96.8806 89.7087 97.2371 90.3448 97.4553C90.9779 97.6735 91.863 97.778 93.0032 97.778H101.322C103.142 97.778 104.383 97.4861 105.047 96.8991C105.711 96.3121 106.043 95.2426 106.043 93.6968V93.1651H108.243C108.243 93.285 108.246 93.454 108.256 93.663C108.265 93.875 108.268 94.0256 108.268 94.1209C108.268 95.3318 108.148 96.2937 107.905 97.0159C107.662 97.735 107.272 98.3281 106.731 98.783C106.215 99.2347 105.49 99.5451 104.558 99.7265C103.627 99.9078 102.121 100 100.035 100H93.9866V99.9969ZM67.3541 99.9969C65.464 99.9969 64.0657 99.8955 63.1561 99.6926C62.2495 99.4898 61.5088 99.1456 60.928 98.6508C60.301 98.1161 59.8401 97.4062 59.5604 96.518C59.2715 95.6299 59.1301 94.4497 59.1301 92.9838V80.4912H61.5949V92.9838C61.5949 94.0072 61.6471 94.7509 61.7485 95.2088C61.8561 95.6637 62.0282 96.0601 62.2648 96.3982C62.5998 96.8929 63.0823 97.2464 63.7092 97.4676C64.3331 97.6889 65.2028 97.7995 66.3153 97.7995H74.2319C75.3537 97.7995 76.2234 97.6889 76.8472 97.4676C77.465 97.2464 77.9505 96.8929 78.2947 96.3982C78.5344 96.0632 78.7065 95.6637 78.8018 95.2088C78.9032 94.7478 78.9524 94.0072 78.9524 92.9838V92.32V80.4912H81.4171V92.8424C81.4171 94.3176 81.2758 95.5192 80.9869 96.4504C80.7041 97.3816 80.2524 98.1161 79.6408 98.6508C79.0876 99.1456 78.3593 99.4898 77.4557 99.6926C76.5522 99.8955 75.1416 99.9969 73.2362 99.9969H67.3541ZM36.1056 99.7572H33.7208V80.4881H47.4765C50.5374 80.4881 52.5658 80.8139 53.5645 81.4654C54.5572 82.12 55.0581 83.3155 55.0581 85.0703V87.3906C55.0581 88.5799 54.8123 89.4527 54.3175 90.0059C53.8227 90.559 52.9407 90.9709 51.6776 91.2352C52.7286 91.3519 53.5185 91.7207 54.0532 92.3569C54.5879 92.9899 54.8522 93.8689 54.8522 94.9906V99.7603H52.4643V95.467C52.4643 94.21 52.1908 93.3526 51.6438 92.8916C51.0937 92.4368 49.8152 92.2063 47.8053 92.2063H36.1117V99.7572H36.1056ZM48.254 82.581H36.1056V89.9751H48.254C49.9812 89.9751 51.1244 89.7631 51.6899 89.3359C52.2554 88.9057 52.5381 88.0421 52.5381 86.739V85.8201C52.5381 84.5263 52.2554 83.6597 51.6899 83.2325C51.1244 82.7961 49.9812 82.581 48.254 82.581ZM28.8221 99.7572H26.4373V80.4881H28.8221V99.7572ZM13.8217 99.7572H11.4369V82.6332H1.89453V80.4881H23.364V82.6332H13.8217V99.7572Z" fill="#A81E3B"/>
<path d="M311.123 58.6958H298.296V16.6849H311.123V58.6958ZM245.67 58.6958H231.675L254.616 16.6849H270.99L293.508 58.6958H279.426L275.363 51.7042L263.16 27.604L249.764 51.7042L245.67 58.6958ZM207.043 27.0294H186.932V48.4651H208.65C211.376 48.4651 213.367 47.9057 214.63 46.7994C215.894 45.6899 216.517 43.9474 216.517 41.578V34.19C216.517 31.7252 215.746 29.9151 214.219 28.7596C212.685 27.6071 210.297 27.0294 207.043 27.0294ZM210.961 16.6849C217.384 16.6849 222.055 17.8128 224.975 20.0531C227.894 22.2997 229.345 25.8708 229.345 30.7848V45.2197C229.345 49.8941 228.18 53.3023 225.842 55.4597C223.512 57.6171 219.803 58.6958 214.717 58.6958H174.104V16.6849H210.961ZM166.129 26.9126H133.064V33.268H164.211V42.1096H133.064V48.5234H166.636V58.6927H120.237V16.6818H166.129V26.9126ZM94.4707 27.1431H74.0707V37.4291H94.4707C96.1733 37.4291 97.378 37.0235 98.0633 36.2244C98.7486 35.4254 99.0928 33.981 99.0928 31.8881C99.0928 30.2316 98.7271 29.0269 97.9957 28.2679C97.2643 27.518 96.0903 27.1431 94.4707 27.1431ZM94.944 16.6849C101.61 16.6849 106.137 17.6745 108.543 19.6506C110.952 21.6236 112.157 25.2284 112.157 30.456C112.157 34.0855 111.616 36.7837 110.547 38.5539C109.477 40.3149 107.679 41.5011 105.166 42.1096C107.378 42.6382 109.047 43.5633 110.153 44.9001C111.263 46.24 111.819 47.9641 111.819 50.0939V58.6927H98.9822V52.2881C98.9822 50.6317 98.595 49.4977 97.8144 48.8769C97.0338 48.2499 95.4941 47.9426 93.2015 47.9426H74.0738V58.6927H61.1878V16.6818H94.944V16.6849ZM40.462 31.8236V31.4025C40.462 29.7737 39.9211 28.5813 38.8332 27.8192C37.7545 27.057 36.0427 26.6821 33.6917 26.6821H23.4148C19.014 26.6821 16.1928 27.2138 14.942 28.2709C13.6881 29.3312 13.0642 31.547 13.0642 34.9275V40.7636C13.0642 43.7968 13.7588 45.8774 15.154 47.0053C16.5431 48.1331 19.2967 48.6986 23.4179 48.6986H30.8736C34.9579 48.6986 37.6254 48.2837 38.8977 47.4663C40.17 46.6488 40.8031 45.1337 40.8031 42.9117V42.46H53.8059C53.8059 42.5153 53.8151 42.6229 53.8336 42.7673C53.892 43.9904 53.9196 44.9032 53.9196 45.5086C53.9196 48.2038 53.5846 50.4227 52.8993 52.1744C52.2263 53.9292 51.166 55.3337 49.7124 56.394C48.3417 57.405 46.5132 58.1273 44.2298 58.5606C41.9371 58.9939 38.5873 59.2152 34.1742 59.2152H19.8345C15.4521 59.2152 12.2253 58.9847 10.1539 58.5114C8.09178 58.0381 6.32161 57.2391 4.85569 56.102C3.15927 54.7621 1.92691 53.1241 1.15553 51.1726C0.387224 49.2272 0 46.7594 0 43.7845V32.3337C0 26.3133 1.42597 22.1153 4.28714 19.7366C7.14523 17.3579 12.3298 16.1655 19.8315 16.1655H34.1711C38.7748 16.1655 42.1646 16.3653 44.3496 16.7802C46.5254 17.1951 48.2495 17.8988 49.5126 18.87C50.8525 19.8903 51.8329 21.2578 52.4598 22.9819C53.0868 24.6968 53.4033 26.8542 53.4033 29.4541C53.4033 30.0718 53.4033 30.5513 53.3941 30.8801C53.3849 31.2059 53.3541 31.5224 53.3173 31.8236H40.462Z" fill="#005826"/>
<path fill-rule="evenodd" clip-rule="evenodd" d="M284.32 15.6864C289.284 12.0477 295.593 5.8244 300.556 2.18571C302.621 0.566123 304.517 -0.116131 306.269 0.0160172C308.018 -0.116131 309.914 0.566123 311.982 2.18571C316.946 5.82747 323.255 12.0477 328.218 15.6864L327.207 17.0324L309.997 7.88653C308.697 7.17969 307.483 6.90617 306.272 7.01681C305.058 6.90617 303.844 7.17969 302.544 7.88653L285.334 17.0324L284.32 15.6864Z" fill="#A81E3B"/>
</svg>
